<svg id="Layer_1" data-name="Layer 1" xmlns="http://www.w3.org/2000/svg" viewBox="0 0 1205 499"><defs><style>.cls-1,.cls-3{fill:#7d2a0d;}.cls-2{fill:#232323;}.cls-3{font-size:53.16px;font-family:Lato-Semibold, Lato;font-weight:600;}</style></defs><path class="cls-1" d="M289.57,299.59c-45,.22-90,.12-135,.12-45.24,0-90.48.15-135.72-.15-6.74-.05-7.34,1.59-5.89,7.7,8.76,36.93,24.25,71.06,42.32,104.18,1.52,2.8,3.15,4.29,6.71,4.28q92.08-.2,184.16,0c3,0,4.84-.63,6.39-3.47,18.35-33.52,33.94-68.11,42.87-105.48C296.9,300.49,295.42,299.57,289.57,299.59Z"/><path class="cls-1" d="M284.91,198.59c-8.69-15-21.5-25.71-35.66-35.15-12.88-8.59-25-18.14-33-31.75-11.79-20.15-13.44-41.38-5.23-63.51H97.41c14.53,44.51-6.88,73.62-33.81,92.11-6.63,4.56-13.26,9.18-19.49,14.25-9.62,7.83-17.66,17-23.22,29H286.7C287.12,201.22,285.73,200,284.91,198.59Z"/><path class="cls-1" d="M34.61,259.46c3,3.26,4.61,2.76,7.34-.2,9.28-10,18.84-19.84,28.3-29.72,5.37-5.62,7.68-5.66,13.17,0,9.51,9.84,19.18,19.54,28.31,29.73,3.32,3.7,4.92,2.82,7.7-.17,9.31-10,18.95-19.74,28.21-29.81,4.47-4.87,8.13-5.12,12.74-.15,9.63,10.4,19.69,20.4,29.34,30.77,2.47,2.65,3.67,2.58,6.1-.05,9.45-10.24,19.24-20.15,28.76-30.32,4.56-4.88,8.39-5.49,13.3-.08,9.36,10.31,19.24,20.14,28.9,30.17,1.66,1.73,2.88,4,5.69.93,7.77-8.45,16.2-16.34,23.62-25.08,4.56-5.36-.79-10.95-1.72-16.43-.75-4.39-4.41-3-7.05-3q-66.39-.09-132.76,0t-132.76.07c-2.77,0-7-1.93-7.81,2.85-1,5.81-6.95,11.46-1.09,17.65C20.12,244.26,27.58,251.67,34.61,259.46Z"/><path class="cls-1" d="M300.43,251.52c-7.89,7.4-16.07,14.6-23.69,22.35-4.84,4.94-8.35,4.95-13.39.09-11-10.67-22.65-20.75-31.85-29.09-9.29,8.33-20.61,18.06-31.41,28.32-6.58,6.26-8.34,6.62-14.79-.15-9.27-9.73-18.66-19.34-27.76-29.21-2.66-2.88-4.08-2.9-6.78,0-9.11,9.87-18.5,19.47-27.86,29.11-6.8,7-8.36,6.91-15.25-.31-8.77-9.18-17.88-18.06-26.22-27.62-3.93-4.5-5.85-3.63-9.35.2-8.89,9.74-18.42,18.89-27.31,28.63-4.81,5.27-8.38,4.93-13.28,0-7.65-7.7-16-14.74-23.91-22-.12,8.81,0,18.29.74,27.81.47,6.24,2.33,7.94,8.69,7.92q136.73-.36,273.45-.17c1.71,0,3.43-.07,5.13,0,2.42.12,3.41-.92,3.7-3.36A167.08,167.08,0,0,0,300.43,251.52Z"/><path class="cls-1" d="M80.33,452.83c2.47,4.08,8,8,1.06,13.19-1.62,1.22-.61,4.18-.38,6.36.62,3.21,2.75,4.77,5.79,5.34,44.58.52,89.16.26,133.74.12a9.3,9.3,0,0,0,2.15-.42c3.34-.62,3.71-3.62,4.82-6-.14-2.16.81-4.9-1.1-6.28-5.44-3.91-2-7.19.31-10.67,1.22-1.82,2.51-3.61,3.61-5.51,3.92-6.76,9-12.9,11.93-20.4H65.1C70.53,437.18,75.55,444.93,80.33,452.83Z"/><path class="cls-1" d="M57.27,29.12c3.7-.09,6.49,1.39,9.32,3.43,7.19,5.17,14,10.89,19.14,18,3.17,4.34,6.59,5.37,11.62,5.34,36.65-.2,73.3-.3,109.94,0,7.34.07,12.69-1.13,17.16-7.66,4.68-6.83,11.63-11.78,18.44-16.56,2-1.37,3.86-2.73,6.62-2.54,5.81.38,10.54-1.6,10.53-8.24,0-6.87-5-7.87-10.71-7.85-31.76.09-63.51,0-95.27,0V13q-48,0-96,0c-5.65,0-9.88,1.7-9.92,8C48.1,26.72,51.91,29.26,57.27,29.12Z"/><path class="cls-2" d="M438.9,243.59l-2.15-2.08-8.31,9.28,1.44,1.9c2.25,2.93,5.91,6.3,11.2,10.29,2.84,2.15,4.7,3.61,5.92,4.6l-68.32,55.3c9.36-85,14.75-140.58,16.05-165.48,6-.79,14.39-1.41,24.83-1.83l2.76-.11v-11.3l-3.23.4c-9.66,1.19-23,1.79-39.68,1.79-14.67,0-27.68-.48-38.68-1.44l-2.81-.25L336.58,157l2.82.34c9.38,1.15,17.13,1.81,23.12,2-.07,19.71-.77,60.1-2.09,120.18-1.34,60.81-3.06,104.64-5.13,130.35l-29-1.09-1.85,14.52,3.38-.11c18.77-.6,40,.8,63.17,4.16l2.72.39,2.78-14.49-29.67-1.65,8.8-68.93c14.56,5.31,23.46,13.53,26.47,24.46,3.43,12.49,5.17,23.41,5.17,32.44v.11c.27,7.21,3.42,14.22,9.38,20.83a29,29,0,0,0,22.25,10.14c14.58,0,26.34-3.65,35-10.86s13.22-17.44,13.22-30.05a34.51,34.51,0,0,0-4.78-18C478.86,366,474,363,467.83,363c-5.1,0-10.24,2.41-15.26,7.16s-7.63,9.35-7.63,13.73a19.92,19.92,0,0,0,3.33,11.55,12.31,12.31,0,0,0,10.65,5.34,11.66,11.66,0,0,0,8.23-3,10.16,10.16,0,0,0,3.38-7.66,11.22,11.22,0,0,0-.72-3.92l-.71-1.87h-2a12.09,12.09,0,0,0-4.26,1.11,7.55,7.55,0,0,1-2.48.7c-2.79,0-4.21-.5-4.21-1.48,0-1.57.35-2,.41-2.07.62-.26,2.19-.69,5.81-.69,7.94,0,11.49,3.27,11.49,10.58,0,5.62-2.06,11.12-6.13,16.34a18.59,18.59,0,0,1-15.55,7.53,27.18,27.18,0,0,1-12.1-2.8,15.77,15.77,0,0,1-7.74-8c-1.71-3.78-2.57-10.33-2.57-19.46,0-11.77-.16-19.6-.46-23.26-.36-4.13-2.28-8.66-5.87-13.86s-8.87-9.45-15.84-12.87a62.8,62.8,0,0,0-18-5.36c10.85-8.07,35.49-26.08,73.56-53.77,6,3.76,13.69,6.53,22.85,8.25l3,.55L490.5,275l-2.42-.68C472,269.88,455.46,259.52,438.9,243.59Z"/><path class="cls-2" d="M779.13,227.5c-5.32,0-10.76,3-16.16,9.05s-8,12.1-8,18.39c0,4,1.73,8.31,5.16,12.69,3.58,4.6,7.72,6.93,12.27,6.93,2.47,0,5-1.2,7.68-3.67s4.12-5.29,4.12-8.31a8.76,8.76,0,0,0-1.57-4.87l-1.38-2.06-2.24,1a18.67,18.67,0,0,1-7.33,2.1c-2.07,0-3.12-2.67-3.12-7.93a3.93,3.93,0,0,1,1.73-3.24,8,8,0,0,1,5.21-1.62c5.21,0,9.29,1.49,12.46,4.55s4.67,7,4.67,12c0,5.63-1.28,12.84-3.81,21.44s-7.79,21-15.58,36.68l-25.11,50.38L735,324.74a470,470,0,0,0-16.23-48.05c-5.73-14.07-12-25.6-18.71-34.25l-1.42-1.83-2.1,1c-15.73,7.49-29.19,12.91-40.19,16.2l-2-8.05-3,1a196,196,0,0,1-59.52,9.86l-2.59,0L588,274.38l20.18-1.16a1104.2,1104.2,0,0,1,18.42,110.87c-12.66,23.34-27.81,35.17-45.07,35.17-14.52,0-25.73-5-34.26-15.16s-12.89-24.53-12.89-42.55c0-12.05,6.43-29.51,19.09-51.88a67.68,67.68,0,0,0,9.3-33.81c0-8.74-2.47-16.34-7.34-22.6-5.05-6.47-11.57-9.75-19.38-9.75-7.2,0-14,3.91-20.09,11.64-6,7.52-9,15.47-9,23.62,0,4.7,1.86,9.23,5.53,13.45s8,6.54,12.63,6.54c4.8,0,9.2-2,13.09-6.07S544,284.26,544,279.5a13.15,13.15,0,0,0-3.36-8.91,10.55,10.55,0,0,0-8.08-4c-2.5,0-5.16,1.7-8.35,5.35l-3.33,3.81,5,.92c2.49.47,5.47,1.4,5.47,3.18a3.48,3.48,0,0,1-.05.58,15.56,15.56,0,0,1-4.16.35,8,8,0,0,1-5.51-2.42,6.93,6.93,0,0,1-2.53-5.25c0-3.09,1.73-5.68,5.3-7.93a23,23,0,0,1,12.38-3.74c9.58,0,13.85,5.12,13.85,16.59,0,3.72-2,9.12-5.9,16a88.9,88.9,0,0,1-14.45,19.12c-6,6-11.33,13.86-15.93,23.44s-7,18.68-7,26.72c0,19.42,7.22,36.13,21.46,49.67s30,20.35,47.1,20.35c20.29,0,38.08-9.55,53-28.42l3.87,39.66,3.76-1.91c8.42-4.27,19.65-8.49,33.35-12.54l2.77-.82-4.34-14.57-3,1.48a101.07,101.07,0,0,1-20.46,7.23c-4.13-63.32-6.25-115.56-6.33-155.37l8.25-2.3,2.19,7.93,2.9-1c10.3-3.55,18.24-6.11,23.64-7.63,20,25.49,40.9,68.55,62.14,128-6.86,18.09-11.87,32.45-14.91,42.69a112.34,112.34,0,0,1-14.12,29.8c-6,9-11.59,13.63-16.72,13.63-5,0-9.22-1.92-13.06-5.86S673,465.25,673,460.53a8.59,8.59,0,0,1,3.58-7.43,16.73,16.73,0,0,1,10.27-3c.7,0,1.85,0,1.85,3.85a7.23,7.23,0,0,1-2.37,5.54c-2.41,2.28-3.44,2.31-3.48,2.31H680v2.88c0,4.2,2.78,6.71,7.43,6.71,4.22,0,8.63-1.59,13.11-4.71,4.8-3.35,7.24-7.14,7.24-11.28a15.09,15.09,0,0,0-5.35-11.81,17.4,17.4,0,0,0-11.72-4.53,41.59,41.59,0,0,0-24.21,7.34c-7.34,5.09-11.06,11.37-11.06,18.65,0,6.87,3.33,12.84,9.89,17.77C671.64,487.57,680,490,690,490c6.14,0,14.22-2.82,24.72-8.64,10.79-6,19.41-22.92,26.36-51.79a261.64,261.64,0,0,1,13.15-40.13c5.54-13.22,14.51-32,26.69-55.84,12.27-24,20.09-41.16,23.22-50.91s4.79-18.48,4.79-25.54c0-7.3-3.1-14.13-9.21-20.31S786.68,227.5,779.13,227.5Z"/><path class="cls-2" d="M891.2,245.69c-15.1,0-29.71,7.66-43.43,22.78s-20.58,30.13-20.58,44.87c0,7.67,2.86,13.9,8.51,18.52a30.78,30.78,0,0,0,20,6.74c6.8,0,14.47-3.44,23.44-10.53s13.65-15.23,13.65-24c0-7.79-4.76-17.07-27.45-17.07-4.29,0-8.31,1.84-12,5.48s-5.48,7.66-5.48,12a13.38,13.38,0,0,0,3.29,9.3,11.22,11.22,0,0,0,8.69,3.77c6.26,0,10.3-3.5,11.39-9.86l.83-4.86c2.08,1.68,3.09,3.53,3.09,5.65,0,4.72-1.94,9-5.92,13.09s-7.92,6-12.12,6a9.83,9.83,0,0,1-7.89-3.86,14.89,14.89,0,0,1-3.42-9.95c0-16,3.08-28.71,9.14-37.67,5.92-8.74,15.55-13,29.46-13,14.14,0,21.31,16.78,21.31,49.88,0,14.4-4.21,31-12.51,49.5-14.16,1.34-24.65,2-31.18,2a46.48,46.48,0,0,0-28.19,9.39c-8.68,6.43-13.08,14-13.08,22.61,0,8.91,3,16.26,8.91,21.83s13.38,8.34,22.35,8.34c6.59,0,16.36-4.09,29.79-12.48l-.33,21.76H895.1l-.31-3.16c-.23-2.43-.35-4.84-.35-7.18,0-20.84,7.7-44.15,22.89-69.3a195.44,195.44,0,0,0,13.76-27c3.09-7.83,4.65-17.3,4.65-28.17,0-15.39-4.25-28.57-12.63-39.17C914.57,251.17,903.83,245.69,891.2,245.69ZM853.3,407.38c-2.18-2.64-3.25-6-3.25-10.17,0-4.44,1.66-8.64,5.08-12.82a20.9,20.9,0,0,1,13.34-7.53c5.32-.88,12.21-1.61,20.53-2.18l-5.34,23.82c-8.38,8.34-15.88,12.57-22.3,12.57A9.86,9.86,0,0,1,853.3,407.38ZM867,304.65a8.23,8.23,0,0,1-4.21,1.08c-.63,0-.94,0-.94-1.74a4.57,4.57,0,0,1,1.12-2.85c.86-1.11,1.44-1.11,1.64-1.11a11.4,11.4,0,0,1,6.7,2.15Z"/><path class="cls-2" d="M1175.94,269.2c-10.17-13.31-24.8-20-43.49-20-9.46,0-18.8,4.34-27.74,12.9a79.06,79.06,0,0,0-17.13,24.29,44.83,44.83,0,0,0-15.47-17.87,51.93,51.93,0,0,0-29.72-9c-10,0-20,3.91-29.72,11.63a69.43,69.43,0,0,0-12.52,12.5c1.26-19.48,2.54-26.68,3.46-29.17l2-5.49-5.59,1.74a211.69,211.69,0,0,1-58,9.52l-3,.07.65,13.82,24.81-2.62c12.47,45.2,18.88,95.06,19.07,148.27l-24.81,5.07L963,438.44l2.73-.8c13.51-3.91,31.54-5.89,53.6-5.89h2.88V416.94L998,418c.07-6.88.31-22.51.71-46.6l1.09-58.4a33.49,33.49,0,0,1,5.81-17.94,42,42,0,0,1,13.18-13.21,28.35,28.35,0,0,1,14.7-4.41c9.64,0,17.86,5,25.12,15.33,7.38,10.5,11.12,21.69,11.12,33.28,0,27.48-1.38,47.16-4.11,58.62,0-.44.05-.87.05-1.31,0-3.28-1.56-6.31-4.63-9a16.46,16.46,0,0,0-11.17-3.89c-6.35,0-11.36,2.23-14.9,6.62-3.37,4.21-5.09,9.62-5.09,16.09a18.66,18.66,0,0,0,7.15,15.05,23.23,23.23,0,0,0,15,5.66c11.58,0,21.67-8.75,30-26,8-16.57,12-37.86,12-63.29a151,151,0,0,0-.93-15.41l-.89-8.18c.07-1,1-4.83,9.19-17.61,5.91-9.27,12.56-13.77,20.31-13.77,13.11,0,23.08,5.88,30.47,18,7.57,12.4,11.41,28.46,11.41,47.72,0,27.57-2.43,48.81-7.22,63.12-4.46,13.3-10.48,20-17.92,20-4.46,0-8.06-.95-10.7-2.83a7.63,7.63,0,0,1-3.52-6.66c0-10.4,4.74-10.4,6.76-10.4,3.85,0,3.85,1.13,3.85,1.67,0,1.92-1.38,3.89-4.09,5.85l-3,2.19,7.34,6,1.62-.71a20.63,20.63,0,0,0,8.46-7c2.45-3.39,3.64-6.35,3.64-9.06,0-10.66-5.93-16.53-16.71-16.53-5.86,0-10.92,2.56-15,7.61a26,26,0,0,0,1.1,34.52c4.8,5.21,11.14,7.85,18.86,7.85,14.34,0,27.14-10.94,38-32.52,10.59-20.93,16-46.16,16-75C1191,300.55,1185.93,282.27,1175.94,269.2ZM1053.12,402.52a9.29,9.29,0,0,1-6.75-2.49,8,8,0,0,1-2.56-6.09,5.37,5.37,0,0,1,1.42-3.87,3.75,3.75,0,0,1,2.25-1.44c3.5,0,4.64.6,4.92.79a5.39,5.39,0,0,1-2.47,1.46l-3.86,1.44,5.73,6.68h1.32a10.84,10.84,0,0,0,9.43-5.19C1059.94,399.6,1056.78,402.52,1053.12,402.52Z"/><text class="cls-3" transform="translate(745.95 488.66)">Healthier &amp; Taster</text></svg>